# xmcd
#
# Track frame offsets:
#  150
#  15465
#  40282
#  59357
#  72850
#  87412
#  104600
#  124800
#  142600
#  158817
#
# Disc length: 2233 seconds
#
# Revision: 2
# Processed by: cddbd v1.5.1PL2 Copyright (c) Steve Scherf et al.
# Submitted via: Collectorz.com_Music_Collector 6.11
#
DISCID=8008b70a
DTITLE=Elis Regina - Elis
DYEAR=1900
DGENRE=
TTITLE0=Na Batucada Da Vida
TTITLE1=Travessia
TTITLE2=Conversando No Bar
TTITLE3=Ponta De Areia
TTITLE4=O Mestre-Sala Dos Mares
TTITLE5=Amor At O Fim
TTITLE6=Dois Pra L . Dois Pra C
TTITLE7=Maria Rosa
TTITLE8=Ca a Raposa
TTITLE9=O Compositor Me Disse
EXTD=
EXTT0=
EXTT1=
EXTT2=
EXTT3=
EXTT4=
EXTT5=
EXTT6=
EXTT7=
EXTT8=
EXTT9=
PLAYORDER=
